<svg width="138" height="138" viewBox="0 0 138 138" fill="none" xmlns="http://www.w3.org/2000/svg">
<circle cx="69" cy="69" r="69" fill="black"/>
<path d="M28.2426 26.0673C22.9785 27.4056 19.6773 32.9374 20.9264 38.2014C21.5509 40.8335 24.0491 43.9116 26.2797 44.8484L27.618 45.3838V57.3395C27.618 68.4475 27.6626 69.3398 28.4656 70.3212C29.3132 71.3919 29.4024 71.3919 40.3321 71.6149C51.2617 71.838 51.3509 71.838 52.1985 72.9086C52.9569 73.8455 53.0462 74.7377 53.0462 82.5445V91.199L51.1725 92.4481C46.756 95.3925 45.2393 100.701 47.5144 105.251C49.4327 109.043 53.4476 111.229 57.5965 110.739C67.0985 109.579 69.7752 97.4892 61.656 92.3143L59.7378 91.1098V82.4553C59.7378 70.9457 59.1578 71.6149 69.3291 71.6149C76.6006 71.6149 76.7345 71.6149 77.8497 72.7302L78.9204 73.8455L78.8312 82.6338L78.6973 91.4667L77.5375 92.002C76.8683 92.3143 75.6192 93.385 74.7716 94.3218C68.1692 101.638 75.5746 113.192 85.1213 110.426C93.1958 108.107 94.8465 96.8646 87.7533 92.4481L85.612 91.1098V82.4553C85.612 73.8455 85.612 73.8008 86.7273 72.7302L87.7979 71.6149H98.2815H108.72L110.103 70.455L111.486 69.2952V57.3395V45.3838L112.78 44.8931C115.858 43.5993 118.178 39.7628 118.178 35.9263C118.178 25.9781 105.152 22.097 99.8429 30.4838C99.1291 31.599 98.4153 33.205 98.2815 34.008C97.5677 37.8446 99.6644 42.4841 103.01 44.3577L104.795 45.3392V53.8152V62.3359L103.501 63.6296L102.207 64.9233H95.6941C92.1698 64.9233 88.7348 64.7449 88.1102 64.4772C85.9689 63.6742 85.612 62.1574 85.612 53.4137V45.3838L86.9503 44.8484C88.8686 44.0454 91.1884 41.1904 91.8575 38.7814C93.7312 32.179 89.0917 25.9781 82.2662 25.9781C77.5821 25.9781 73.8348 28.8778 72.6303 33.4281C71.5596 37.3984 73.4333 42.2164 76.9575 44.3577L78.8758 45.5176L78.9204 53.8598C78.9204 62.0236 78.9204 62.202 77.8497 63.4511L76.7791 64.7002L69.5967 64.8341L62.4144 64.9679L61.0761 63.6296L59.7378 62.3359V53.8152C59.7378 48.2835 59.9162 45.2946 60.1839 45.2946C61.0315 45.2946 64.645 41.6365 65.4479 39.9859C66.6524 37.3984 66.474 33.4727 64.9572 30.8853C60.853 23.8814 50.8156 24.2829 47.2914 31.6437C45.15 36.0155 46.756 41.5472 50.9048 44.1793L53.0015 45.5176V53.7706C53.0462 61.8451 53.0015 62.0682 51.9755 63.3619L50.9048 64.7002L43.7225 64.8341L36.5402 64.9679L35.2018 63.6296L33.8635 62.3359V53.8598C33.8635 45.5176 33.8635 45.4284 34.8896 44.9823C40.689 42.3056 42.4288 34.5434 38.28 29.547C35.9156 26.6919 31.633 25.2197 28.2426 26.0673ZM84.9429 30.7961C86.2812 32.0898 86.3258 32.8035 85.2551 34.1419C84.4521 35.1233 84.4521 35.1679 85.4782 36.194C86.8611 37.5769 86.7719 38.8706 85.2105 40.432C84.0953 41.5026 83.5153 41.7257 81.7309 41.7257C79.2773 41.7257 77.8497 40.9673 78.2512 39.8967C78.4743 39.3167 79.0096 39.2275 80.7048 39.4059C82.5339 39.5844 82.98 39.4505 83.203 38.826C83.6491 37.7107 82.8461 36.6401 81.4186 36.4616C79.768 36.2386 79.9464 34.4541 81.597 34.1865C82.8908 34.008 83.4261 33.3835 83.0692 32.4466C82.8461 32.0005 82.3108 31.8667 80.8833 32.0452C79.4111 32.179 78.9204 32.0898 78.6973 31.5098C77.939 29.547 83.1138 28.9224 84.9429 30.7961ZM33.7297 30.7961C35.1572 31.7775 35.4249 33.6065 34.3542 35.0787C33.5512 36.1493 33.5066 36.417 34.042 37.5769C34.8896 39.2275 35.3803 41.7257 34.8896 41.7703C34.7111 41.7703 34.1758 41.8595 33.7743 41.9487C32.8375 42.1272 32.4806 41.6365 31.856 39.4952C31.4991 38.2907 31.1423 37.8892 30.2054 37.7999C29.0902 37.6661 29.0009 37.7553 28.8671 39.8074C28.7333 41.5919 28.5994 41.9487 27.8411 41.9487C26.9935 41.9487 26.9488 41.5919 26.815 36.0155L26.6812 30.1269H29.7147C31.6776 30.1269 33.1051 30.3499 33.7297 30.7961ZM57.418 36.0155L57.2842 41.9041H56.1689C55.0536 41.9041 55.0536 41.9041 54.8306 37.1754C54.6521 33.0712 54.5183 32.4466 53.9384 32.8035C52.8231 33.5173 52.1539 33.2943 52.1539 32.2236C52.1539 31.0637 53.6707 30.2607 56.0797 30.1715L57.5518 30.1269L57.418 36.0155ZM112.155 31.2422C112.155 32.0005 111.799 32.179 109.925 32.3574C108.274 32.5359 107.65 32.7589 107.561 33.3389C107.427 33.9634 107.694 34.1419 108.72 34.1419C112.691 34.1419 113.851 39.3167 110.282 41.1904C109.167 41.8149 105.731 41.9041 104.839 41.3242C103.59 40.5212 104.661 39.5398 106.713 39.5844C109.167 39.629 109.702 39.3167 109.702 37.8892C109.702 36.6847 108.319 35.9263 106.088 35.9263C104.839 35.9263 104.75 35.8371 104.973 34.6772C105.062 34.008 105.285 32.7143 105.464 31.7775L105.731 30.0823L108.943 30.2161C111.799 30.3499 112.155 30.4392 112.155 31.2422ZM58.9794 95.3478C61.2545 96.5077 60.7638 99.8535 57.9087 102.664L56.1243 104.404L58.4887 104.627C60.4962 104.805 60.853 104.984 60.853 105.742C60.853 106.59 60.5408 106.634 56.615 106.634C51.3063 106.634 51.1279 106.233 54.8306 102.575C56.7042 100.612 57.5072 99.4966 57.5072 98.6936C57.5072 97.1323 56.2135 96.4185 54.5629 97.043C53.6261 97.3999 53.2692 97.3999 52.9569 96.9538C52.4662 96.1508 52.5108 95.8832 53.18 95.3478C54.3399 94.411 57.1503 94.411 58.9794 95.3478ZM85.5228 98.4706C85.4782 100.657 85.612 101.727 85.9689 101.861C86.5935 102.039 86.6827 104.047 86.1027 104.27C85.8351 104.315 85.5674 104.984 85.4782 105.742C85.3444 106.857 85.1213 107.08 83.9168 107.214C82.5339 107.348 82.4893 107.304 82.4893 105.787V104.181H79.8126C77.2252 104.181 77.136 104.136 77.136 102.976C77.136 102.307 78.0728 100.344 79.2773 98.5152L81.374 95.2586H83.5153H85.6566L85.5228 98.4706Z" fill="white"/>
<path d="M28.957 33.4728C28.957 34.7219 29.1355 35.0342 29.8046 35.0342C31.3214 35.0342 32.0798 34.4989 32.0798 33.4728C32.0798 32.4468 31.3214 31.9114 29.8046 31.9114C29.1355 31.9114 28.957 32.2237 28.957 33.4728Z" fill="white"/>
<path d="M81.5973 98.8274C81.285 99.5412 80.7943 100.389 80.4374 100.656C79.456 101.459 79.7236 101.95 81.1512 101.95C82.4449 101.95 82.4895 101.906 82.4895 99.7197C82.4895 98.4706 82.4003 97.4891 82.311 97.4891C82.2218 97.4891 81.9095 98.0691 81.5973 98.8274Z" fill="white"/>
</svg>
