<svg width="138" height="138" viewBox="0 0 138 138" fill="none" xmlns="http://www.w3.org/2000/svg">
<circle cx="69" cy="69" r="69" fill="black"/>
<path d="M62.2165 17.3241C43.1361 19.8507 26.3209 33.5294 19.9608 51.5643C9.76711 80.4899 26.5823 111.942 56.292 119.609C62.4779 121.265 73.63 121.439 80.2515 120.045C94.8014 117.083 109.177 105.756 115.624 92.1647C119.719 83.5393 121.026 78.0504 121.026 68.9022C120.939 51.4772 112.139 35.0976 97.5023 25.3396C88.267 19.1537 73.63 15.8429 62.2165 17.3241ZM77.6377 26.3851C86.3503 28.3018 92.7975 31.7869 99.3319 38.2341C108.306 47.1209 112.314 56.6176 112.314 69.2507C112.314 88.6797 100.203 104.972 81.5584 110.722C76.5922 112.204 73.9785 112.465 66.7471 112.116C58.8187 111.768 57.0761 111.332 51.0645 108.544C38.2571 102.62 29.3703 91.2063 26.3209 77.0049C21.6162 54.7008 37.1245 31.4384 60.0384 26.5593C67.3569 24.904 70.4935 24.904 77.6377 26.3851Z" fill="white"/>
<path d="M66.6609 29.4346C66.3124 29.8703 67.7064 36.4047 69.7103 43.8103L73.4567 57.4019L76.9417 55.398C93.7569 45.8142 98.3745 42.9391 98.3745 42.4163C98.3745 39.8897 86.177 32.2226 79.6426 30.5673C73.5438 28.999 67.2708 28.4763 66.6609 29.4346Z" fill="white"/>
<path d="M47.7537 35.5333C39.9124 40.4995 32.9424 49.8219 30.59 58.4473L29.7188 61.7581H44.4429C52.5456 61.7581 59.1671 61.5838 59.1671 61.2353C59.1671 60.8868 52.7198 36.1432 51.9357 33.6166C51.8486 33.2681 49.9318 34.1393 47.7537 35.5333Z" fill="white"/>
<path d="M94.0182 62.1937C88.0065 65.7658 83.3017 68.9895 83.5631 69.338C84.173 70.3835 104.473 84.4106 105.432 84.4106C107.261 84.4106 109.091 74.4784 108.568 66.6371C108.132 58.1859 107.523 55.6593 105.867 55.7464C105.344 55.7464 100.03 58.7087 94.0182 62.1937Z" fill="white"/>
<path d="M66.4851 60.1898C62.913 61.0611 60.822 63.5877 60.2992 67.5955C59.428 73.8685 65.6139 78.6604 71.7998 76.5694C77.55 74.6526 79.2925 67.5955 75.2848 62.8036C72.8453 59.8413 70.4057 59.1443 66.4851 60.1898Z" fill="white"/>
<path d="M29.5449 76.395C29.5449 77.9632 32.9428 86.9372 34.4239 89.3767C37.1248 93.6458 41.8296 99.2218 43.5721 100.18C45.1404 100.964 45.7502 100.093 50.8906 89.2895C54.0271 82.8423 56.5538 77.092 56.5538 76.5692C56.5538 76.0465 51.7619 75.698 43.0493 75.698C35.6437 75.698 29.5449 76.0465 29.5449 76.395Z" fill="white"/>
<path d="M64.9177 93.2977C61.2585 100.965 58.4704 107.499 58.7318 107.76C58.9932 108.022 62.7396 108.457 67.0087 108.632C76.0698 109.067 84.0853 107.063 90.6197 102.794C98.6352 97.3926 98.8966 98.0896 85.4793 88.7671C79.032 84.2366 73.1946 80.2289 72.6719 79.8804C71.9749 79.4447 69.3611 83.9753 64.9177 93.2977Z" fill="white"/>
</svg>
