<svg width="138" height="138" viewBox="0 0 138 138" fill="none" xmlns="http://www.w3.org/2000/svg">
<circle cx="69" cy="69" r="69" fill="black"/>
<path d="M95.0802 27.7277C94.34 28.2564 94.3136 29.446 95.0537 30.1068C95.371 30.3976 96.164 30.662 96.9571 30.7413C98.3053 30.8735 98.3317 30.8735 98.3317 31.7723C98.3317 32.5124 98.1995 32.7239 97.6708 32.8825C97.3007 32.9883 96.2962 33.2791 95.4238 33.5434C94.5515 33.8078 93.2561 34.3629 92.5688 34.7594C91.8815 35.156 91.1942 35.4996 91.062 35.4996C90.9034 35.4996 90.7977 35.6054 90.7977 35.7375C90.7977 35.8697 90.5862 36.0548 90.2954 36.1605C89.0265 36.557 85.9336 40.0994 84.4003 42.9015C83.0521 45.3864 82.074 49.246 82.074 52.0745C82.074 53.74 82.7085 57.0444 83.29 58.419C83.5015 58.8684 83.6601 59.3707 83.6601 59.5293C83.6601 59.6879 83.9509 60.2959 84.321 60.8775C84.6911 61.4591 84.9819 61.9878 84.9819 62.0935C84.9819 62.8866 89.7667 67.6978 91.2999 68.4115C91.8815 68.7023 92.3838 69.0196 92.3838 69.0989C92.3838 69.2046 93.124 69.5218 94.0492 69.8655C94.948 70.1827 95.8732 70.5264 96.1111 70.6585C96.3491 70.7643 97.195 70.9493 98.0145 71.0551C99.7592 71.2666 100.103 71.5838 99.9178 72.7998C99.865 73.3021 99.6799 74.8353 99.5213 76.2099C98.5961 85.1979 95.371 87.815 83.528 89.2954C82.8142 89.4011 80.9637 89.6391 79.4305 89.8505C77.8972 90.062 75.6502 90.3264 74.4078 90.485C73.1653 90.6172 71.6321 90.8551 70.9712 90.9873C70.3103 91.1194 68.592 91.4367 67.1381 91.6746C65.6841 91.9389 63.7279 92.2826 62.7763 92.4941C61.8246 92.7056 60.4764 93.0228 59.7362 93.1814C59.0225 93.3136 57.8593 93.6044 57.172 93.8158C56.4847 94.0273 55.718 94.1859 55.4801 94.1859C55.0572 94.1859 52.7573 94.7939 51.5413 95.2433C49.9816 95.7985 48.2369 96.3008 47.8932 96.3008C47.6553 96.3008 47.3909 96.0364 47.2852 95.6927C47.1795 95.3755 47.0473 95.0583 46.9415 94.979C46.7301 94.8204 46.0692 93.3929 44.6945 90.1678C44.4566 89.6391 44.2716 89.0575 44.2716 88.846C44.2716 88.6345 44.1923 88.3702 44.0865 88.2644C43.5314 87.7357 42.2625 81.7349 41.6545 76.7387C41.3373 74.2802 41.3108 65.1336 41.628 62.4636C42.051 58.6834 42.3947 56.3571 42.659 55.5111C42.7912 55.0353 43.1084 53.9515 43.3463 53.0791C43.5843 52.2067 43.875 51.3079 43.9808 51.0964C44.113 50.8585 44.298 50.2769 44.4038 49.7747C44.6152 48.823 44.6945 48.6115 45.4347 47.2105C45.6726 46.7611 45.8577 46.2588 45.8577 46.1002C45.8577 45.36 49.0299 40.7602 50.5103 39.3327C52.863 37.0857 52.863 37.0857 55.7445 35.9226C58.5466 34.7859 62.7763 36.0548 65.6048 38.9098C66.9002 40.2051 68.3277 42.0027 68.3277 42.3464C68.3277 42.505 68.4334 42.6372 68.5656 42.6372C68.9092 42.6372 71.6321 48.2943 72.4251 50.6999C73.1389 52.7354 73.2711 53.2641 73.8791 56.3835C74.0377 57.1766 74.2756 58.3926 74.4342 59.0535C74.5664 59.7143 74.8572 62.4107 75.0422 65.0807C75.3066 69.046 75.3066 70.7114 75.0422 74.4388C74.8308 76.9501 74.5664 79.5144 74.4342 80.1752C73.4561 84.8014 73.2446 85.7266 72.9274 86.7312C72.7159 87.3392 72.5573 87.9736 72.5573 88.1058C72.5573 88.4495 73.5619 88.4495 75.148 88.0529C76.3904 87.7886 76.4962 87.7093 76.7605 86.6783C76.8927 86.0703 77.0778 85.2244 77.1306 84.8014C77.2099 84.352 77.395 83.2946 77.5271 82.4222C78.3995 77.3467 78.5053 75.9985 78.4788 69.6011C78.4788 63.2567 78.3731 61.6441 77.5271 56.78C77.395 55.9077 77.1835 54.6652 77.0778 54.0043C76.972 53.3434 76.7341 52.286 76.549 51.6251C76.364 50.9643 76.0203 49.7747 75.8089 48.9816C75.2802 47.0254 74.6193 45.2014 74.3549 44.8842C74.2492 44.752 74.1434 44.4348 74.1434 44.1968C74.1434 43.9589 73.7998 43.0337 73.3504 42.1613C72.9274 41.2625 72.5573 40.4166 72.5573 40.2844C72.5573 40.1258 72.4516 39.9936 72.293 39.9936C72.1608 39.9936 72.0286 39.8615 72.0286 39.7028C72.0286 39.3592 69.6494 35.6582 69.3587 35.5525C69.2265 35.4996 69.1207 35.341 69.1207 35.2088C69.1207 34.7066 66.2657 31.9837 64.6532 30.8999C61.4545 28.8115 62.0361 28.8908 48.2104 28.8908C37.0547 28.8908 35.8123 28.9437 34.6227 29.3666C32.1907 30.239 31.2126 30.847 29.0713 32.8297C27.6174 34.2043 25.5025 36.8478 25.5025 37.3501C25.5025 37.4823 25.3968 37.6144 25.2646 37.6144C25.1324 37.6144 24.921 37.8788 24.8152 38.196C24.7095 38.5397 24.5773 38.8569 24.4716 38.9362C24.3394 39.042 22.8854 41.9498 22.3039 43.298C21.643 44.8577 20.4798 48.1093 20.4798 48.4265C20.4798 48.6644 20.3212 49.2988 20.1097 49.9069C19.4753 51.7309 18.5236 56.595 18.0478 60.481C17.5455 64.2876 17.6248 75.2847 18.1535 79.25C18.7615 83.6118 19.1052 85.5152 19.7396 87.8415C20.0304 88.9253 20.3741 90.1678 20.4798 90.6172C20.7971 91.7803 21.9602 95.0583 22.2774 95.6663C22.436 95.9307 23.1234 97.3317 23.8107 98.7328C24.498 100.16 25.1853 101.323 25.291 101.323C25.3968 101.323 25.5025 101.456 25.5025 101.641C25.5025 102.037 27.4852 104.628 28.8069 105.95C31.2654 108.408 33.6975 109.783 36.6318 110.364C38.7202 110.787 56.8019 110.814 59.2604 110.391C61.0315 110.074 63.305 109.307 63.305 108.99C63.305 108.884 63.5693 108.725 63.913 108.62C65.5255 108.223 69.2529 104.231 71.4206 100.663C71.8964 99.8431 73.3504 96.8823 73.3504 96.6708C73.3504 96.5915 72.901 96.5915 72.3723 96.6708C71.8171 96.7766 70.6804 96.9088 69.8609 96.9881C68.4334 97.1467 68.2484 97.2524 67.3496 98.3627C66.7944 99.0236 66.1071 99.7638 65.8163 100.028C65.5255 100.292 64.944 100.821 64.4946 101.191C64.0716 101.588 62.9877 102.249 62.1154 102.698C60.7143 103.438 60.2649 103.518 58.2823 103.518C56.6697 103.544 55.8238 103.412 55.2422 103.095C54.8192 102.857 54.2905 102.645 54.1319 102.645C53.9469 102.645 53.7883 102.513 53.7883 102.381C53.7883 102.222 53.6561 102.117 53.4975 102.117C53.1538 102.117 51.2505 100.663 50.5367 99.896C50.1666 99.473 50.1402 99.3408 50.4046 99.2615C50.5896 99.2086 50.9861 99.0765 51.2769 98.9443C51.5677 98.8121 52.3343 98.6006 52.9952 98.442C57.3306 97.3582 58.5202 97.0409 59.3397 96.803C61.4281 96.2214 67.6139 95.0319 71.4999 94.4767C72.7424 94.2917 74.3549 94.0273 75.0687 93.8951C75.8089 93.7365 77.395 93.525 78.6374 93.3929C85.5106 92.6527 91.2206 91.6481 93.0975 90.8551C93.5469 90.6436 94.0492 90.485 94.2078 90.485C94.6043 90.485 96.9571 89.1632 97.3007 88.7403C97.4593 88.5288 97.6708 88.3702 97.7766 88.3702C98.0409 88.3702 99.5213 86.8105 99.5213 86.5197C99.5213 86.3611 99.627 86.2554 99.7328 86.2554C100.05 86.2554 101.53 83.1889 102.006 81.6292C102.773 78.9857 103.011 77.611 103.143 74.756C103.222 73.1435 103.407 71.716 103.539 71.5573C103.672 71.3723 104.438 71.1608 105.284 71.0551C106.104 70.9493 106.923 70.7907 107.055 70.6585C107.214 70.5528 107.716 70.3678 108.219 70.262C109.17 70.0505 111.602 68.8874 112.157 68.3587C112.342 68.1736 112.633 68.015 112.765 68.015C113.162 68.015 117.418 63.6796 117.603 63.0452C117.709 62.728 117.894 62.4636 118.026 62.4636C118.132 62.4636 118.29 62.2521 118.396 61.9878C118.475 61.7499 118.66 61.3533 118.793 61.1418C119.004 60.7717 119.348 60.0051 120.088 58.234C120.247 57.8639 120.564 56.5421 120.802 55.2732C121.727 50.4356 120.458 44.7255 117.55 40.7867C115.594 38.1696 112.29 35.4203 109.699 34.31C109.117 34.0457 108.456 33.7549 108.219 33.6492C108.007 33.5434 107.135 33.3055 106.342 33.1469C104.782 32.8032 104.544 32.5389 104.755 31.3757C104.835 30.8999 105.073 30.7942 106.315 30.6884C107.954 30.5562 108.509 30.0804 108.509 28.8644C108.509 27.3576 108.245 27.3047 101.689 27.3047C96.6663 27.3047 95.5824 27.384 95.0802 27.7277ZM105.205 37.5616C106.474 37.8524 109.408 39.1741 109.514 39.4914C109.567 39.6235 109.752 39.7293 109.937 39.7293C110.492 39.7293 114.061 43.3773 114.061 43.9589C114.061 44.1175 114.166 44.2233 114.272 44.2233C114.404 44.2233 114.669 44.6727 114.907 45.2014C115.145 45.7565 115.541 46.6817 115.805 47.2633C116.466 48.7701 116.466 55.3525 115.832 56.5157C115.594 56.9386 115.382 57.4673 115.382 57.626C115.382 58.0225 113.77 60.6924 113.479 60.8246C113.373 60.8775 113.268 61.0361 113.268 61.1683C113.268 61.5384 111.47 63.2302 110.228 64.0233C109.646 64.3934 109.117 64.7635 109.038 64.8428C108.774 65.1071 107.055 65.8473 105.76 66.2703C104.068 66.8254 99.2834 66.8254 97.803 66.2967C97.2214 66.0852 96.5605 65.9002 96.2962 65.9002C96.0583 65.9002 95.8204 65.8209 95.7675 65.6887C95.7411 65.583 95.1066 65.2129 94.3929 64.8428C91.6436 63.4417 88.6564 59.7936 87.5726 56.5421C86.8059 54.1629 86.8059 49.6954 87.5726 47.4484C87.8898 46.5496 88.3127 45.545 88.4978 45.2278C89.4759 43.4831 91.9079 40.5223 92.3309 40.5223C92.4366 40.5223 92.8067 40.258 93.1768 39.9143C94.1021 39.0948 96.6399 37.9052 98.0674 37.6409C98.7282 37.5087 99.3627 37.3237 99.4684 37.2179C99.7063 36.98 103.804 37.2179 105.205 37.5616Z" fill="white"/>
<path d="M101.054 39.5443C99.8904 39.9937 99.8375 41.4741 101.001 42.2407C101.503 42.5579 101.741 42.5844 102.27 42.32C104.146 41.4741 102.983 38.857 101.054 39.5443Z" fill="white"/>
<path d="M95.1585 41.4739C94.339 42.3463 94.339 42.6635 95.1056 43.3772C95.8987 44.1174 96.7446 44.1174 97.2469 43.3772C97.802 42.5842 97.7756 41.9497 97.1411 41.3153C96.4274 40.6015 95.9251 40.6544 95.1585 41.4739Z" fill="white"/>
<path d="M106.104 41.3419C105.152 42.2936 105.945 43.959 107.346 43.959C108.007 43.959 108.774 43.0602 108.774 42.32C108.774 41.6856 107.848 40.7868 107.187 40.7868C106.897 40.7868 106.421 41.0247 106.104 41.3419Z" fill="white"/>
<path d="M109.038 43.9061C108.668 44.144 108.325 44.4083 108.245 44.4876C108.166 44.5669 107.584 45.0428 106.923 45.545C106.263 46.0473 105.443 46.7346 105.073 47.0519C103.143 48.7702 102.8 49.0081 102.218 48.9023C101.425 48.7437 99.5216 49.2196 99.5216 49.5632C99.5216 49.6954 99.3366 49.9862 99.1251 50.1977C98.9136 50.4356 98.7286 51.0171 98.7286 51.5194C98.7286 52.0217 98.4378 52.8941 98.0677 53.4756C96.8781 55.379 97.3804 56.7007 99.0986 56.1192C99.6009 55.9605 100.156 55.6433 100.315 55.4318C100.5 55.2204 101.108 55.0617 101.742 55.0617C102.562 55.0617 103.064 54.8767 103.725 54.3216C104.465 53.7135 104.624 53.3699 104.782 52.101C104.888 51.0436 105.126 50.3827 105.602 49.854C105.972 49.4575 106.738 48.5322 107.32 47.8185C107.902 47.0783 108.642 46.2059 108.959 45.8623C109.276 45.5186 109.62 44.9899 109.699 44.7256C109.805 44.4348 109.99 44.2233 110.122 44.2233C110.254 44.2233 110.36 44.0382 110.36 43.8268C110.36 43.3245 109.858 43.3509 109.038 43.9061Z" fill="white"/>
<path d="M110.228 45.3868C109.461 46.1534 109.409 46.5235 109.99 47.343C110.255 47.7131 110.677 47.9246 111.153 47.9246C113.057 47.9246 113.321 45.4396 111.497 44.8845C111.048 44.7788 110.73 44.9109 110.228 45.3868Z" fill="white"/>
<path d="M91.1141 45.3339C90.9291 45.519 90.7969 46.0477 90.7969 46.5235C90.7969 47.4223 91.352 47.9246 92.3301 47.9246C93.4404 47.9246 94.1277 46.2063 93.3347 45.3868C92.8588 44.9374 91.5371 44.9109 91.1141 45.3339Z" fill="white"/>
<path d="M111.918 50.6737C110.65 51.2817 111.178 53.4758 112.579 53.4758C113.505 53.4494 114.06 52.8414 114.06 51.8104C114.06 51.0173 113.954 50.8323 113.293 50.6208C112.764 50.4358 112.368 50.4358 111.918 50.6737Z" fill="white"/>
<path d="M89.4763 51.0703C88.6303 52.6564 90.2429 54.1632 91.6704 53.1058C92.1991 52.7093 92.2784 51.3611 91.8026 50.8852C91.2739 50.3565 89.7935 50.4887 89.4763 51.0703Z" fill="white"/>
<path d="M57.0933 39.1214C57.199 39.5443 57.384 40.8661 57.5162 42.1086C57.622 43.351 57.9127 45.6509 58.1507 47.2634C58.9702 53.0528 59.3931 56.2779 59.5782 58.0226C59.6575 58.9743 59.8425 59.8731 59.9483 59.9788C60.1333 60.1639 62.5125 57.8904 62.5125 57.5468C62.5125 57.4675 62.7768 57.1502 63.1205 56.833C63.4377 56.5158 64.3101 55.5377 65.0238 54.6653C65.764 53.793 66.6099 52.8413 66.9536 52.5241C67.2708 52.2068 67.5352 51.8896 67.5352 51.8103C67.5352 51.731 68.0639 51.0966 68.7248 50.3828C69.7029 49.3518 69.8879 48.9817 69.7822 48.453C69.6764 48.0829 69.5178 47.7393 69.4385 47.66C69.3328 47.5807 69.0156 47.052 68.7248 46.4704C67.4823 43.959 63.8078 39.7294 62.8561 39.7294C62.6711 39.7294 62.5125 39.6501 62.5125 39.5179C62.5125 39.1214 59.8954 38.4076 58.415 38.4076H56.9082L57.0933 39.1214Z" fill="white"/>
<path d="M50.7478 42.2672C49.5053 43.5361 48.7651 44.4614 48.7651 44.7257C48.7651 44.8579 48.6065 45.1487 48.4479 45.3337C48.2628 45.5188 47.7077 46.4969 47.2319 47.5279C46.7296 48.5324 46.2273 49.5898 46.0952 49.8277C45.963 50.0921 45.8572 50.4622 45.8572 50.7001C45.8572 50.9116 45.6986 51.4667 45.4871 51.9425C44.8527 53.4494 44.2711 55.432 44.2711 56.0664C44.2711 56.3837 44.1654 56.8595 44.0332 57.1239C43.8217 57.5468 43.3194 60.0317 43.0287 62.2523L42.8965 63.2568H48.5536C51.673 63.2568 54.2901 63.1775 54.3694 63.0982C54.4487 63.0189 54.4223 62.5695 54.2901 62.1201C54.1579 61.6443 53.9464 60.1375 53.8143 58.7628C53.6821 57.3882 53.4442 55.4056 53.2855 54.401C53.1269 53.37 52.8626 51.5989 52.7304 50.4357C52.5718 49.2726 52.281 47.2371 52.0695 45.9417C51.858 44.62 51.6466 43.0867 51.6201 42.5051L51.5408 41.4477L50.7478 42.2672Z" fill="white"/>
<path d="M71.9748 59.6087C71.5518 60.0317 71.2346 60.4282 71.2346 60.5075C71.2346 60.5868 70.9702 60.904 70.6266 61.2213C70.3094 61.5385 69.437 62.5166 68.7232 63.389C68.0095 64.2613 67.2957 65.1073 67.1371 65.2659C67.0049 65.4245 66.582 65.9003 66.2383 66.3233C65.8947 66.7462 65.1545 67.5922 64.5729 68.2002C64.0178 68.8346 63.5684 69.4162 63.5684 69.5219C63.5684 69.6541 64.1499 70.5794 64.8901 71.5839C66.3441 73.6194 66.2383 73.4872 67.4808 75.0469C67.9302 75.6549 68.3267 76.2894 68.3267 76.448C68.3267 76.6066 68.4324 76.7388 68.5382 76.7388C68.6439 76.7388 69.0405 77.2146 69.3841 77.7962C69.7542 78.3778 70.1243 78.8536 70.2565 78.8536C70.3622 78.8536 70.4415 79.0386 70.4415 79.2501C70.4415 79.4616 70.5208 79.6467 70.653 79.6467C70.7588 79.6467 71.1288 80.1225 71.4989 80.7041C71.8426 81.2856 72.2656 81.7615 72.4506 81.7615C72.7943 81.7615 72.8471 81.3914 73.4552 76.0779C73.931 71.7689 73.9574 67.8565 73.508 63.2303C73.0851 58.8685 72.9529 58.5777 71.9748 59.6087Z" fill="white"/>
<path d="M56.9333 62.6486C56.0345 63.2038 55.4793 64.4462 54.9242 67.0897C54.5012 69.0988 54.5012 69.3367 54.9771 71.5309C55.2414 72.7998 55.5586 73.8307 55.6908 73.8307C55.7966 73.8307 55.9023 73.9893 55.9023 74.1744C55.9023 74.7824 57.4355 75.9456 58.2022 75.9456C58.9423 75.9456 60.3963 74.7824 60.3963 74.1744C60.3963 73.9893 60.502 73.8307 60.6342 73.8307C60.9514 73.8307 61.7181 70.4735 61.7181 69.0195C61.7181 68.3586 61.533 67.0369 61.2951 66.1381C60.4227 62.7279 58.8366 61.459 56.9333 62.6486Z" fill="white"/>
<path d="M43.0287 76.2631C43.293 79.0388 44.324 84.3259 44.7998 85.1718C44.932 85.4626 45.0642 85.9384 45.0642 86.2292C45.0642 86.52 45.2492 87.2073 45.4871 87.7624C45.7251 88.3176 46.0158 89.0049 46.148 89.2957C48.2628 94.5299 48.9237 94.7942 49.8225 90.8025C50.1397 89.4014 50.5098 87.8682 50.6156 87.4452C50.9857 86.0442 52.096 81.3387 52.4661 79.5146C52.5982 78.9331 52.8626 77.6377 53.1005 76.6068C53.3384 75.6022 53.5235 74.7299 53.5235 74.7034C53.5235 74.6506 51.1179 74.6241 48.21 74.6241H42.8965L43.0287 76.2631Z" fill="white"/>
<path d="M59.1292 77.9811C58.9442 78.2983 58.812 78.8535 58.812 79.2235C58.812 79.6201 58.7062 80.1223 58.5741 80.3867C58.4419 80.6246 58.1775 81.5498 58.0189 82.4222C57.4902 85.1186 56.9086 87.5507 56.2478 89.9034C56.0363 90.6965 55.9041 91.3573 55.957 91.4366C56.0891 91.5424 57.8603 91.2252 60.3981 90.6436C61.3498 90.4321 62.4865 90.1677 62.9094 90.0884C66.3196 89.4011 67.5356 89.1103 67.5356 88.9517C67.5356 88.846 67.2448 88.4495 66.8747 88.0529C66.5046 87.6564 66.2139 87.2863 66.2139 87.207C66.2139 87.1013 62.2486 81.5234 61.5084 80.5717C61.4026 80.4131 61.0061 79.8844 60.6624 79.3822C60.2924 78.8799 59.9223 78.4041 59.843 78.3247C59.7636 78.2454 59.6315 78.0075 59.5522 77.796C59.4464 77.4788 59.3671 77.5317 59.1292 77.9811Z" fill="white"/>
<path d="M62.3804 98.5479C61.508 98.7594 59.9748 99.1031 58.9438 99.341C57.9393 99.5789 56.6704 99.8433 56.1681 99.949C55.2693 100.16 55.2693 100.16 55.8244 100.478C56.6704 100.954 59.9219 100.874 61.2437 100.346C62.4333 99.8697 62.4597 99.8697 63.7022 98.8387C64.601 98.0721 64.5481 98.0721 62.3804 98.5479Z" fill="white"/>
</svg>
