<svg width="138" height="138" viewBox="0 0 138 138" fill="none" xmlns="http://www.w3.org/2000/svg">
<circle cx="69" cy="69" r="69" fill="#020202"/>
<path d="M45.1987 18.8454C44.1058 19.8168 43.8629 20.3431 43.701 22.286L43.5391 24.5933H69.2832H95.0273V22.9741C95.0273 22.0431 94.7439 20.7883 94.4201 20.1407C93.1248 17.5905 94.2177 17.712 69.2427 17.712H46.4535L45.1987 18.8454Z" fill="white"/>
<path d="M43.7015 28.7221L43.8229 30.0579L69.2432 30.1793L94.623 30.2603V28.8435V27.4268H69.0813H43.5801L43.7015 28.7221Z" fill="white"/>
<path d="M44.1862 40.0559C44.3077 42.5656 44.5101 47.0991 44.672 50.0945C45.0767 58.8378 45.3601 59.1211 54.9534 59.4045L61.6323 59.6069L61.7538 79.2792L61.8347 98.9516L60.6204 100.449C59.9727 101.299 59.3251 102.311 59.2036 102.757C59.0417 103.161 58.8393 103.526 58.6774 103.566C58.4345 103.607 55.4392 103.728 51.189 103.93C50.9866 103.93 50.9056 104.416 50.9866 105.023L51.108 106.157H56.1273H61.1871L61.5109 104.942C61.8752 103.404 63.8991 101.299 65.9635 100.247C69.8899 98.223 75.152 100.409 77.014 104.821L77.6212 106.359H82.4786H87.3359V105.185C87.3359 103.769 86.405 103.445 82.5595 103.566C80.8999 103.607 79.8475 103.485 79.7261 103.202C79.6451 102.959 79.0784 101.987 78.4308 101.016L77.2164 99.2755V79.3197V59.4045H83.612C93.4482 59.4045 93.6101 59.2426 93.9744 47.4634C94.1363 43.2132 94.3387 38.8011 94.4601 37.6272L94.6625 35.5224H69.3232H43.9434L44.1862 40.0559ZM72.4805 55.3567C74.6258 57.7449 73.5329 61.7117 70.578 62.4808C69.0803 62.8451 66.935 62.3594 66.1254 61.4689C65.1134 60.3355 64.6682 58.3925 65.1134 56.8139C65.9635 53.6566 70.2137 52.8065 72.4805 55.3567Z" fill="white"/>
<path d="M51.0678 109.8C50.4606 111.298 51.1488 111.621 54.9132 111.621H58.5967L59.3658 113.119C62.0374 118.3 68.8377 120.527 74.1808 117.936C76.4881 116.803 79.1192 114.131 79.4835 112.552C79.7263 111.662 79.9287 111.621 83.5313 111.621H87.3362V110.407V109.193H82.4789H77.581L76.8524 110.933C75.0309 115.183 69.6068 117.126 65.478 115.062C64.0208 114.293 62.3612 112.431 61.6326 110.69L61.0254 109.193H56.1681C52.2012 109.193 51.2297 109.314 51.0678 109.8Z" fill="white"/>
</svg>
