<svg width="138" height="138" viewBox="0 0 138 138" fill="none" xmlns="http://www.w3.org/2000/svg">
<circle cx="69" cy="69" r="69" fill="black"/>
<path d="M63.6953 51.4685C63.6953 52.6924 64.6368 52.8807 68.8736 52.6924C71.6981 52.5041 74.0519 51.9392 74.0519 51.4685C74.0519 50.9036 71.6981 50.4328 68.8736 50.2445C64.6368 50.0562 63.6953 50.2445 63.6953 51.4685Z" fill="white"/>
<path d="M15.6777 53.3514C14.4538 56.6467 14.4538 83.5737 15.6777 85.9274C16.5251 87.4339 17.749 87.7163 24.0571 87.7163C29.2354 87.7163 31.7775 87.3397 32.5307 86.3982C33.2839 85.5508 33.5663 79.9018 33.378 68.3213L33.0956 51.4684L24.8103 51.1859C16.7134 50.9035 16.6192 50.9976 15.6777 53.3514ZM23.8688 76.6066C23.7747 80.9375 23.5864 77.4539 23.5864 68.8862C23.5864 60.3185 23.7747 56.835 23.8688 61.0717C24.0571 65.4026 24.0571 72.3698 23.8688 76.6066ZM21.8917 61.1659C21.0443 61.9191 16.6192 58.2472 16.6192 56.835C16.6192 55.7993 17.3724 56.0818 19.4438 58.0589C20.9502 59.5653 22.08 60.8834 21.8917 61.1659ZM29.8003 59.0004C28.5763 60.3185 27.1641 61.3542 26.5992 61.3542C26.1284 61.3542 26.8816 60.1302 28.388 58.5297C29.8945 57.0233 31.3067 55.8934 31.495 56.1759C31.7775 56.4584 31.0243 57.6823 29.8003 59.0004ZM20.3853 69.357C21.6092 70.6751 22.1741 71.7107 21.6092 71.7107C21.1385 71.7107 19.7262 70.6751 18.5022 69.357C17.2783 68.0389 16.7134 67.0032 17.2783 67.0032C17.749 67.0032 19.1613 68.0389 20.3853 69.357ZM29.8003 69.357C28.5763 70.6751 27.1641 71.7107 26.6933 71.7107C26.1284 71.7107 26.6933 70.6751 27.9173 69.357C29.1413 68.0389 30.5535 67.0032 31.0243 67.0032C31.5892 67.0032 31.0243 68.0389 29.8003 69.357ZM20.3853 79.7135C21.7975 81.2199 22.1741 82.0673 21.3268 82.0673C19.9145 82.0673 16.6192 79.3369 16.6192 78.113C16.6192 76.7007 18.1256 77.3598 20.3853 79.7135ZM29.3296 80.1843C27.8231 81.6907 26.4109 82.8205 26.2226 82.538C25.5635 81.879 29.8945 77.3598 31.1184 77.3598C31.5892 77.3598 30.836 78.5837 29.3296 80.1843Z" fill="white"/>
<path d="M106.251 52.1274C104.651 53.728 104.651 84.9859 106.251 86.5865C107.758 88.0929 121.315 88.0929 122.822 86.5865C124.234 85.1742 124.422 55.5168 123.01 52.7865C122.163 51.2801 120.939 50.9976 114.725 50.9976C110.3 50.9976 106.91 51.4684 106.251 52.1274ZM114.254 76.6066C114.16 80.9375 113.972 77.4539 113.972 68.8862C113.972 60.3185 114.16 56.835 114.254 61.0717C114.442 65.4026 114.442 72.3698 114.254 76.6066ZM109.829 59.0004C111.053 60.3185 111.618 61.3542 111.053 61.3542C110.582 61.3542 109.17 60.3185 107.946 59.0004C106.722 57.6823 106.157 56.6467 106.722 56.6467C107.193 56.6467 108.605 57.6823 109.829 59.0004ZM120.185 59.0004C118.962 60.3185 117.549 61.3542 117.079 61.3542C116.514 61.3542 117.079 60.3185 118.302 59.0004C119.526 57.6823 120.939 56.6467 121.409 56.6467C121.974 56.6467 121.409 57.6823 120.185 59.0004ZM109.829 69.357C111.053 70.6751 111.618 71.7107 111.053 71.7107C110.582 71.7107 109.17 70.6751 107.946 69.357C106.722 68.0389 106.157 67.0032 106.722 67.0032C107.193 67.0032 108.605 68.0389 109.829 69.357ZM119.715 69.8277C118.208 71.3341 116.796 72.4639 116.608 72.1815C115.949 71.5224 120.28 67.0032 121.504 67.0032C121.974 67.0032 121.221 68.2272 119.715 69.8277ZM109.829 79.7135C111.053 81.0316 111.806 82.2556 111.524 82.538C111.335 82.8205 109.923 81.6907 108.417 80.1843C106.91 78.5837 106.157 77.3598 106.628 77.3598C107.193 77.3598 108.605 78.3954 109.829 79.7135ZM119.715 80.1843C118.208 81.6907 116.796 82.8205 116.608 82.538C115.949 81.879 120.28 77.3598 121.504 77.3598C121.974 77.3598 121.221 78.5837 119.715 80.1843Z" fill="white"/>
<path d="M66.5195 56.1758C66.5195 58.1529 66.9903 58.5295 69.344 58.5295C71.6978 58.5295 72.1686 58.1529 72.1686 56.1758C72.1686 54.1986 71.6978 53.822 69.344 53.822C66.9903 53.822 66.5195 54.1986 66.5195 56.1758Z" fill="white"/>
<path d="M60.8698 61.8245C59.9283 62.9543 57.198 63.2368 47.5946 63.2368H35.4492V69.3565V75.4763H48.442C57.857 75.5705 61.9997 75.9471 63.6944 76.8886C66.8013 78.6774 70.6615 78.6774 74.3334 76.8886C76.4047 75.9471 81.3005 75.4763 90.0565 75.288L102.767 75.0056V69.3565V63.7075L91.0922 63.4251C82.7128 63.2368 78.9467 62.766 77.5345 61.8245C74.71 59.8473 62.4704 59.8473 60.8698 61.8245Z" fill="white"/>
</svg>
