<svg width="138" height="138" viewBox="0 0 138 138" fill="none" xmlns="http://www.w3.org/2000/svg">
<circle cx="69" cy="69" r="69" fill="black"/>
<path d="M54.2828 20.7212C54.0572 21.5983 54.4081 27.1866 54.7088 27.2869C54.8341 27.337 54.9343 27.6878 54.9343 28.0637C54.9343 28.4396 55.1098 29.3167 55.3353 29.9934C55.7864 31.3967 57.4654 34.9302 57.7661 35.0555C57.8664 35.1056 57.9415 35.2559 57.9415 35.3812C57.9415 35.5316 58.0668 35.7571 58.1921 35.9326C58.3425 36.108 58.6933 36.5089 58.969 36.8598C59.2697 37.2106 59.7459 37.787 60.0716 38.1629C60.9237 39.1653 63.8306 41.3205 65.1839 41.9219C65.8104 42.2226 66.3867 42.5233 66.4619 42.5985C66.5371 42.6737 67.1636 42.9494 67.8653 43.1749C68.993 43.5759 70.1959 43.626 77.1375 43.626C84.2044 43.626 85.2569 43.5759 86.3094 43.1749C86.961 42.9243 87.5624 42.6486 87.6627 42.5484C87.7629 42.4482 88.0636 42.373 88.3142 42.373C88.5648 42.373 88.7653 42.2727 88.7653 42.1725C88.7653 42.0472 89.1913 41.7715 89.7176 41.546C90.5195 41.1952 91.9479 40.1426 93.652 38.639C94.8048 37.6116 96.2332 35.6318 97.1604 33.7273C97.5864 32.9003 97.9623 32.1736 98.0375 32.0984C98.3382 31.7977 99.4158 28.3645 99.6163 27.0864C99.7416 26.3346 99.8919 24.43 99.9671 22.8763L100.092 20.0696H77.2628H54.4331L54.2828 20.7212Z" fill="white"/>
<path d="M69.8208 45.8312C69.6704 45.9314 69.3447 46.6832 69.069 47.5102L68.5929 49.0138H56.8397C45.4625 49.0138 45.0866 48.9887 44.811 48.5126C44.2095 47.4601 43.583 47.1594 42.0293 47.1343C40.7011 47.1343 40.4004 47.2345 39.5734 47.9112C38.8968 48.4625 38.6462 48.8634 38.6462 49.4148C38.6462 49.8157 38.546 50.1415 38.3956 50.1415C38.2703 50.1415 38.145 50.5675 38.145 51.0687C38.145 51.9458 38.0197 52.848 37.3681 56.4065C37.2178 57.1583 37.0173 58.4113 36.892 59.1631C36.7918 59.9149 36.5161 61.619 36.2655 62.9221C35.4886 67.3577 35.4886 67.5582 36.2404 68.31C36.8669 68.9365 37.0424 68.9866 38.7214 68.8864C40.2751 68.8112 40.6259 68.7109 41.2524 68.1095C41.9291 67.4579 42.1045 67.4329 44.4351 67.4329C45.8134 67.4329 46.9912 67.4579 47.1165 67.483C47.4172 67.6083 47.1666 69.9389 46.515 72.6203C46.1893 74.0487 45.9136 75.6024 45.9136 76.0786C45.9136 76.5547 45.8134 76.9557 45.663 76.9557C45.5377 76.9557 45.4124 77.3316 45.4124 77.7576C45.4124 78.5094 44.9363 81.2409 44.41 83.4713C44.0592 85.025 43.1069 89.8114 42.9064 91.1146C42.7811 91.7912 42.5054 93.2697 42.2799 94.3723C41.6283 97.5299 41.3777 98.808 41.2274 99.9607C41.1522 100.687 40.9517 101.113 40.5758 101.314C39.4481 101.915 38.6462 103.269 38.6462 104.597C38.6462 106.1 39.9994 106.752 42.9565 106.727C44.0341 106.702 44.9864 106.752 45.0616 106.852C45.237 107.028 44.7358 109.408 44.3849 110.085C44.2596 110.336 44.1594 110.711 44.1594 110.962C44.1594 111.188 43.8587 112.215 43.5078 113.243C42.6307 115.824 42.731 116.275 44.2847 116.726C44.9864 116.951 46.1141 117.327 46.7907 117.578C47.4924 117.828 48.4948 118.104 49.0461 118.204L50.0485 118.355L50.7502 116.099C51.1261 114.871 51.4268 113.618 51.4268 113.318C51.4268 113.042 51.5521 112.791 51.6774 112.791C51.8277 112.791 51.928 112.491 51.953 112.09C51.953 111.288 52.755 108.13 53.0056 107.88C53.1058 107.779 53.181 107.479 53.181 107.228C53.181 106.827 53.4316 106.777 55.0104 106.727C55.9877 106.702 57.1405 106.702 57.5414 106.727C58.3433 106.802 60.0725 106.201 60.5486 105.699C60.699 105.524 60.9746 104.948 61.1501 104.396C61.4758 103.219 61.1751 101.665 60.5737 101.414C60.2479 101.289 60.2228 100.963 60.3481 99.5848C60.4484 98.6325 60.5987 97.8306 60.6739 97.7554C60.7742 97.6803 60.9746 96.7781 61.1501 95.7506C61.3004 94.7232 61.551 93.2948 61.7014 92.6181C61.8517 91.9165 62.0773 90.864 62.2026 90.2375C62.3279 89.611 62.6035 88.2076 62.804 87.105C63.0296 86.0023 63.2802 84.5739 63.3804 83.8973C63.4556 83.2457 63.631 82.7195 63.7312 82.7195C63.8565 82.7195 63.9568 82.2934 63.9568 81.7672C63.9568 81.266 64.1322 79.9879 64.3577 78.9605C64.5833 77.933 64.8088 76.8053 64.884 76.4795C65.0343 75.6776 65.4604 76.1287 65.736 77.3817C66.0117 78.76 66.563 80.5643 66.7134 80.7147C66.989 80.9903 67.7158 82.544 67.7158 82.8698C67.7158 83.0703 67.8411 83.2207 67.9664 83.2207C68.1167 83.2207 68.217 83.346 68.217 83.4963C68.217 84.0727 70.9986 87.2303 71.4998 87.2303C71.9008 87.2303 72.9784 86.6539 72.9784 86.4283C72.9784 86.3281 73.1538 86.2279 73.3543 86.2279C73.5547 86.2279 73.7302 86.1527 73.7302 86.0274C73.7302 85.8018 73.0285 84.7744 72.427 84.1228C72.2015 83.8722 71.8005 83.1455 71.5499 82.5691C71.2993 81.9677 71.0237 81.4665 70.9234 81.4665C70.7981 81.4665 70.723 81.2159 70.723 80.8901C70.6979 80.5894 70.5475 80.0631 70.3471 79.7123C70.1466 79.3614 69.9962 78.785 69.9712 78.3841C69.9712 78.0082 69.8709 77.7075 69.7206 77.7075C69.5953 77.7075 69.47 77.4067 69.47 77.0058C69.47 76.6299 69.3447 75.9282 69.1943 75.4521C69.069 74.9759 68.8435 73.6227 68.6931 72.4449C68.5678 71.2671 68.3924 69.6632 68.3172 68.8864L68.1418 67.4579L82.1503 67.3828C95.5574 67.3076 96.1839 67.2825 96.9858 66.8064C97.4118 66.5558 97.7877 66.23 97.7877 66.1298C97.7877 66.0295 85.3329 65.9293 70.0965 65.9293H42.4052V65.3028V64.6763L72.2516 64.6262C101.597 64.551 102.123 64.551 102.399 64.0498C102.549 63.7992 102.825 63.4233 103 63.2228C103.326 62.872 103.451 56.6822 103.151 55.2036C103.075 54.7776 102.624 54.0258 102.173 53.5497L101.346 52.6475H73.0034H44.6606V52.021V51.3945H71.6251C96.1087 51.3945 98.5896 51.3694 98.4393 50.9935C98.3641 50.768 98.2889 50.5174 98.2889 50.3921C98.2889 50.2919 97.8128 49.941 97.2113 49.6654C96.209 49.1892 95.6827 49.1391 90.9714 49.1391C85.4332 49.1391 85.4833 49.1391 85.1575 47.7608C85.0573 47.3348 84.8568 46.7083 84.6814 46.3073L84.3806 45.6307H77.2386C73.3041 45.6307 69.9712 45.7309 69.8208 45.8312Z" fill="white"/>
</svg>
