<svg width="148" height="148" viewBox="0 0 148 148" fill="none" xmlns="http://www.w3.org/2000/svg">
<circle cx="74" cy="74" r="74" fill="black"/>
<path d="M47.6122 34.8608C45.2349 35.2987 40.9807 36.2997 38.2281 37.113C35.4754 37.8637 30.5331 38.9898 27.28 39.5529C21.587 40.4913 21.3367 40.6164 21.4618 42.0553C22.0249 47.4355 21.7121 49.4374 19.8353 53.3787C17.5205 58.3836 17.3954 60.1353 19.4599 62.5752C21.0239 64.452 22.6505 65.3278 26.9672 66.3914C28.7189 66.8918 29.7824 67.6426 30.5331 68.9563C33.7237 74.5868 41.4187 74.7119 44.8595 69.2066L46.2358 66.8918L51.8663 67.3298C54.9943 67.5174 67.3813 67.7051 79.4555 67.7051H101.477L102.54 69.5819C105.481 74.5868 113.113 74.4617 116.429 69.3943C117.305 68.0805 117.993 67.8302 121.684 67.58C124.311 67.4549 126.564 66.9544 127.565 66.2662C129.129 65.2653 129.254 64.8273 129.254 60.886C129.254 57.5077 128.941 56.194 127.815 54.5048C125.125 50.4384 117.43 46.9976 106.106 44.6203C103.166 43.9947 99.0996 42.6183 97.035 41.5548C91.7174 38.9272 82.7712 36.0495 76.2649 34.9234C69.5709 33.7347 53.8682 33.6722 47.6122 34.8608ZM65.4419 40.8041V45.7464L63.7528 45.4961C50.9279 43.4942 41.9817 41.242 40.1675 39.5529C38.9162 38.3642 51.6161 36.1746 61.5632 35.9243L65.4419 35.7992V40.8041ZM75.827 37.113C81.5826 38.114 89.7155 40.6789 94.8454 43.1814L99.5375 45.4336L95.7838 45.8715C90.9667 46.4345 75.5768 46.5596 73.0118 46.0592L71.0724 45.6212V41.0543C71.0724 38.4893 71.3226 36.4248 71.5729 36.4248C71.8857 36.4248 73.7625 36.7376 75.827 37.113ZM40.6054 59.0092C42.4196 59.8225 44.1713 62.6377 44.1713 64.7022C44.1713 71.0208 34.9124 73.3981 32.0346 67.7677C30.4706 64.8273 30.7834 62.8254 33.1607 60.4481C35.4129 58.1959 37.7902 57.6954 40.6054 59.0092ZM113.551 59.9476C117.242 63.0756 116.491 68.3307 112.05 70.4578C108.359 72.2095 104.292 70.2701 103.291 66.2662C101.727 60.1979 108.734 55.8812 113.551 59.9476Z" fill="white"/>
<path d="M49.1758 72.5849C49.1758 74.9622 49.8639 75.2125 56.7456 75.2125H62.3135V88.0374V100.862H72.636H82.9585V88.0374V75.2125H89.2146C95.283 75.2125 95.5332 75.1499 96.2214 73.6484C96.5967 72.7726 96.7844 71.9593 96.6593 71.8342C96.5342 71.7091 85.7737 71.4588 72.8237 71.2086L49.1758 70.7707V72.5849Z" fill="white"/>
<path d="M59.3102 105.367C58.8723 105.805 58.5595 106.868 58.5595 107.806V109.496L52.366 109.746C47.2986 109.871 45.7971 110.184 44.4208 111.247C40.6671 114 40.4795 114 72.5731 114C89.2767 114 102.978 113.75 102.978 113.5C102.978 113.187 102.289 112.311 101.413 111.498C99.9746 110.121 99.0988 109.934 93.5934 109.746L87.3374 109.496V107.681C87.3374 106.555 86.8994 105.679 86.1487 105.242C84.3344 104.303 60.2486 104.428 59.3102 105.367Z" fill="white"/>
</svg>
