<svg width="88" height="82" viewBox="0 0 88 82" fill="none" xmlns="http://www.w3.org/2000/svg">
<g id="TG">
<g id="Group 10">
<path id="Vector 27" d="M28.6647 76.6435L38.9353 64.2437L42.9433 65.6214C49.0806 64.8699 61.5055 63.2417 62.1067 62.7407C62.7079 62.2397 66.8662 60.1104 68.8702 59.1084L72.6277 53.0964L74.0055 43.5773V33.0562L71.8762 21.1574L67.743 12.5151L54.4664 9.13333L37.307 8.50708L22.7779 11.7636L14.3861 21.1574L11.7559 35.8118L13.2589 55.7266L26.1597 62.7407L26.786 75.391L28.6647 76.6435Z" fill="#1596EC" stroke="black"/>
<path id="Vector" d="M38.6844 5.0742C38.2836 5.12431 36.7556 5.29965 35.3027 5.44995C29.8417 6.00106 25.5081 7.17841 21.3998 9.18243C18.3437 10.6604 16.3146 12.2636 14.5611 14.5682C10.6784 19.6784 9 26.7175 9 37.7146C9 47.935 10.6283 54.3479 14.511 59.4831C16.8407 62.5894 20.6233 65.2697 24.3307 66.4721L25.7836 66.923V71.2317C25.7836 76.1665 26.0091 77.0183 27.462 77.6946C29.1904 78.5213 30.0672 77.9201 34.7015 72.7347L37.8578 69.2026L43.1434 69.2277C48.7796 69.2778 53.0382 68.902 57.0963 68.0503C63.2336 66.7727 66.1394 65.5954 69.3709 63.1405C75.6585 58.3809 78.2136 50.7657 78.2386 36.6124C78.2386 31.4019 77.9631 28.3708 77.0863 24.7135C75.2076 16.6474 72.0262 12.2385 65.939 9.20748C62.3318 7.40387 58.0482 6.20146 52.7877 5.55016C49.8568 5.1744 40.2876 4.84875 38.6844 5.0742ZM49.2055 10.4349C57.7476 11.1363 64.0101 13.2907 67.3669 16.6975C72.1264 21.5071 73.9801 31.3769 72.6023 44.5032C71.8759 51.4671 69.5462 56.2767 65.4881 59.1575C63.5091 60.5854 61.6053 61.3619 57.8728 62.2888C53.3388 63.416 50.1324 63.8168 44.2706 63.9671L38.8347 64.1174L38.0331 65.1445C36.7305 66.7727 33.1233 70.9812 30.9439 73.386C29.491 75.0142 28.8147 75.5653 28.4389 75.5152C27.9129 75.4401 27.9129 75.3399 27.8377 68.7267C27.7876 63.416 27.7125 62.0383 27.462 62.0383C27.2616 62.0383 26.4099 61.7377 25.5331 61.387C19.0952 58.7817 15.513 53.3459 14.486 44.6284C14.1102 41.3719 14.3357 31.1013 14.8617 28.2957C15.8888 22.7095 17.6173 19.0522 20.5481 16.2967C25.5582 11.6123 36.3798 9.40788 49.2055 10.4349Z" fill="#ECECEC"/>
<g id="tg">
<path id="Vector 29" d="M33.0566 41.9215L56.4785 26.5156L38.4424 44.5517L37.5657 54.196C37.4655 55.6991 37.0229 54.8223 36.8142 54.196L33.0566 41.9215Z" fill="#C1ECEC" stroke="#C1ECEC"/>
<g id="Vector 28">
<path d="M61.2393 20.5036C63.5439 19.702 63.6191 21.2551 63.3686 22.1318L56.7301 54.8223C56.2291 57.4275 54.2669 56.9933 53.3484 56.4505L38.694 44.4265L38.8193 45.1153L40.3223 46.1017L40.8233 46.4305L38.8193 45.679V45.3972V45.1153L38.694 44.4265L42.3769 40.9194L56.7301 26.2651L32.682 41.9214L24.0398 38.9154C21.3344 37.6128 22.3281 36.3687 23.1631 35.9094L61.2393 20.5036Z" fill="white"/>
<path d="M38.694 44.4265L53.3483 56.4505C54.2669 56.9933 56.2291 57.4275 56.7301 54.8223L63.3686 22.1318C63.6191 21.2551 63.5439 19.702 61.2393 20.5036L23.1631 35.9094C22.3281 36.3687 21.3344 37.6128 24.0398 38.9154L32.682 41.9214L56.7301 26.2651L42.3769 40.9194L38.694 44.4265ZM38.694 44.4265L38.8193 45.1153M38.8193 45.1153V45.3971M38.8193 45.1153L40.3223 46.1017M38.8193 45.3971V45.679L40.8233 46.4305L40.3223 46.1017M38.8193 45.3971L40.3223 46.1017" stroke="#1E1E1E"/>
</g>
<g id="Vector 30">
<path d="M44.1519 49.1086C44.1694 49.1321 44.1869 49.1579 44.2047 49.1858L43.8973 48.9501C43.6598 48.9653 43.311 49.3699 42.5764 50.4383L38.6937 54.9473C38.3179 55.3648 37.5664 55.9493 37.5664 54.9473L38.6937 44.6768L43.5985 48.6898L43.9458 48.9526C44.0215 48.9656 44.0866 49.0211 44.1519 49.1086Z" fill="#1E1E1E"/>
<path d="M44.2047 49.1858C43.9124 48.7265 43.6786 48.8351 42.5764 50.4383L38.6937 54.9473C38.3179 55.3648 37.5664 55.9493 37.5664 54.9473L38.6937 44.6768L44.2047 49.1858ZM44.2047 49.1858L40.4472 46.305L45.0815 49.812" stroke="#1E1E1E"/>
</g>
</g>
</g>
</g>
</svg>
