<svg width="88" height="82" viewBox="0 0 88 82" fill="none" xmlns="http://www.w3.org/2000/svg">
<g id="Viber">
<g id="Group 11">
<g id="Black">
<path id="Vector" d="M23.3882 7.06923C23.0342 7.2713 22.8824 7.42285 23.0089 7.42285C23.1606 7.42285 23.5399 7.2713 23.894 7.06923C24.248 6.86716 24.4251 6.71561 24.2733 6.71561C24.1469 6.71561 23.7423 6.86716 23.3882 7.06923Z" fill="#151515"/>
</g>
<g id="Gray">
<path id="Vector_2" d="M37.298 9.89818C35.022 10.1003 30.6471 11.0348 28.3964 11.7673C24.8054 12.9292 22.757 14.1164 20.6075 16.2886C17.9016 18.9913 16.359 22.1739 15.398 27.1498C14.7658 30.4587 14.6141 42.4819 15.1451 45.7655C16.0808 51.3729 18.0786 55.4143 21.1891 58.0665C22.7317 59.3799 25.2353 60.7691 27.1573 61.3753L28.5228 61.83L28.3458 68.1699C28.2194 73.2469 28.2447 74.6109 28.4976 74.9645C28.8263 75.4192 28.8769 75.3939 29.5597 74.8635C29.939 74.5604 32.3162 71.9082 34.8197 68.9782L39.4223 63.6486L44.9858 63.4971C55.7082 63.2192 63.396 61.249 67.3157 57.8391C70.2998 55.2375 72.2723 50.9688 73.1069 45.3361C73.8149 40.4864 73.7644 31.0902 72.9804 27.1751C71.3619 18.9913 68.5802 15.0762 62.6626 12.7271C57.3773 10.6054 53.3817 9.9487 45.0111 9.84766C41.3948 9.8224 37.9303 9.8224 37.298 9.89818ZM46.9077 17.6778C51.3333 18.3346 54.3932 19.9006 57.5796 23.1337C59.3498 24.9271 59.982 25.8111 60.7912 27.4529C61.9798 29.903 62.7385 32.7825 62.9661 35.6368C63.1178 37.3543 63.0925 37.7332 62.7132 38.0868C62.4856 38.3142 62.1315 38.5162 61.9545 38.5162C61.1706 38.5162 60.8924 37.7837 60.7407 35.4347C60.4625 31.0649 58.844 27.2761 56.1381 24.624C53.938 22.4517 52.8 21.694 50.3217 20.7089C49.0067 20.1785 46.1238 19.5723 44.9352 19.5723C43.4432 19.5723 42.8615 19.3197 42.6845 18.6124C42.5834 18.1578 42.6592 17.8799 42.988 17.6273C43.5696 17.2232 43.949 17.2232 46.9077 17.6778ZM33.1507 20.4816C34.491 21.896 36.2359 24.2451 37.3233 26.089C38.0567 27.3519 38.3096 28.0592 38.3096 28.8927C38.3096 29.9283 38.2084 30.1051 36.6405 31.5954C35.022 33.1362 34.9462 33.2372 35.0979 34.197C35.3508 36.0662 37.2475 39.5519 39.1188 41.5473C41.3189 43.8963 45.2387 46.1444 47.2112 46.1949C48.071 46.2201 48.3239 46.0433 49.7401 44.5026C51.2068 42.9618 51.4344 42.8102 52.3701 42.8102C53.1541 42.8102 53.8874 43.1133 55.4048 44.0226C57.706 45.4119 60.8418 47.862 61.4235 48.746C62.2833 50.0595 61.6258 51.8276 59.4762 54.1008C56.4922 57.2582 55.076 57.3087 49.4619 54.606C38.6889 49.428 32.7966 43.7448 27.4607 33.4645C25.387 29.4736 24.5778 27.4024 24.5778 26.1648C24.5778 24.3461 26.3733 21.9718 28.9275 20.3048C30.5965 19.2186 32.038 19.2691 33.1507 20.4816ZM49.209 22.8811C54.4944 24.3967 58.2877 29.5747 57.9842 34.8537C57.9083 36.3187 57.883 36.3693 57.175 36.445C56.2899 36.5461 56.0117 36.1924 56.0117 34.8537C55.9611 29.6505 52.1931 25.3565 46.9583 24.5735C46.0226 24.4219 45.087 24.2451 44.8846 24.1188C44.3789 23.8915 44.2524 22.9317 44.657 22.4517C45.0364 21.9718 46.6549 22.1486 49.209 22.8811ZM49.8918 27.8823C51.662 28.7917 52.8 30.4335 53.2299 32.732C53.5334 34.2475 53.2299 34.98 52.3701 34.98C51.5609 34.98 51.308 34.5759 51.1057 33.1109C50.8528 31.0397 49.1837 29.4231 47.3124 29.4231C46.9836 29.4231 46.4525 29.2211 46.1238 28.9432C45.5927 28.5138 45.5674 28.4128 45.8456 27.7813C46.1491 27.0993 46.2249 27.0993 47.5653 27.2509C48.3492 27.3267 49.386 27.6298 49.8918 27.8823Z" fill="#6B4096"/>
</g>
<g id="Gray_2">
<path id="Vector_3" d="M37.298 9.89818C35.022 10.1003 30.6471 11.0348 28.3964 11.7673C24.8054 12.9292 22.757 14.1164 20.6075 16.2886C17.9016 18.9913 16.359 22.1739 15.398 27.1498C14.7658 30.4587 14.6141 42.4819 15.1451 45.7655C16.0808 51.3729 18.0786 55.4143 21.1891 58.0665C22.7317 59.3799 25.2353 60.7691 27.1573 61.3753L28.5228 61.83L28.3458 68.1699C28.2194 73.2469 28.2447 74.6109 28.4976 74.9645C28.8263 75.4192 28.8769 75.3939 29.5597 74.8635C29.939 74.5604 32.3162 71.9082 34.8197 68.9782L39.4223 63.6486L44.9858 63.4971C55.7082 63.2192 63.396 61.249 67.3157 57.8391C70.2998 55.2375 72.2723 50.9688 73.1069 45.3361C73.8149 40.4864 73.7644 31.0902 72.9804 27.1751C71.3619 18.9913 68.5802 15.0762 62.6626 12.7271C57.3773 10.6054 53.3817 9.9487 45.0111 9.84766C41.3948 9.8224 37.9303 9.8224 37.298 9.89818ZM46.9077 17.6778C51.3333 18.3346 54.3932 19.9006 57.5796 23.1337C59.3498 24.9271 59.982 25.8111 60.7912 27.4529C61.9798 29.903 62.7385 32.7825 62.9661 35.6368C63.1178 37.3543 63.0925 37.7332 62.7132 38.0868C62.4856 38.3142 62.1315 38.5162 61.9545 38.5162C61.1706 38.5162 60.8924 37.7837 60.7407 35.4347C60.4625 31.0649 58.844 27.2761 56.1381 24.624C53.938 22.4517 52.8 21.694 50.3217 20.7089C49.0067 20.1785 46.1238 19.5723 44.9352 19.5723C43.4432 19.5723 42.8615 19.3197 42.6845 18.6124C42.5834 18.1578 42.6592 17.8799 42.988 17.6273C43.5696 17.2232 43.949 17.2232 46.9077 17.6778ZM33.1507 20.4816C34.491 21.896 36.2359 24.2451 37.3233 26.089C38.0567 27.3519 38.3096 28.0592 38.3096 28.8927C38.3096 29.9283 38.2084 30.1051 36.6405 31.5954C35.022 33.1362 34.9462 33.2372 35.0979 34.197C35.3508 36.0662 37.2475 39.5519 39.1188 41.5473C41.3189 43.8963 45.2387 46.1444 47.2112 46.1949C48.071 46.2201 48.3239 46.0433 49.7401 44.5026C51.2068 42.9618 51.4344 42.8102 52.3701 42.8102C53.1541 42.8102 53.8874 43.1133 55.4048 44.0226C57.706 45.4119 60.8418 47.862 61.4235 48.746C62.2833 50.0595 61.6258 51.8276 59.4762 54.1008C56.4922 57.2582 55.076 57.3087 49.4619 54.606C38.6889 49.428 32.7966 43.7448 27.4607 33.4645C25.387 29.4736 24.5778 27.4024 24.5778 26.1648C24.5778 24.3461 26.3733 21.9718 28.9275 20.3048C30.5965 19.2186 32.038 19.2691 33.1507 20.4816ZM49.209 22.8811C54.4944 24.3967 58.2877 29.5747 57.9842 34.8537C57.9083 36.3187 57.883 36.3693 57.175 36.445C56.2899 36.5461 56.0117 36.1924 56.0117 34.8537C55.9611 29.6505 52.1931 25.3565 46.9583 24.5735C46.0226 24.4219 45.087 24.2451 44.8846 24.1188C44.3789 23.8915 44.2524 22.9317 44.657 22.4517C45.0364 21.9718 46.6549 22.1486 49.209 22.8811ZM49.8918 27.8823C51.662 28.7917 52.8 30.4335 53.2299 32.732C53.5334 34.2475 53.2299 34.98 52.3701 34.98C51.5609 34.98 51.308 34.5759 51.1057 33.1109C50.8528 31.0397 49.1837 29.4231 47.3124 29.4231C46.9836 29.4231 46.4525 29.2211 46.1238 28.9432C45.5927 28.5138 45.5674 28.4128 45.8456 27.7813C46.1491 27.0993 46.2249 27.0993 47.5653 27.2509C48.3492 27.3267 49.386 27.6298 49.8918 27.8823Z" fill="#6B4096"/>
</g>
<g id="LightGray">
<path id="Vector_4" d="M39.1937 4.31631C38.7891 4.36683 37.2465 4.54364 35.7797 4.69519C30.2668 5.25089 25.8918 6.43804 21.7445 8.45873C18.6593 9.94899 16.6109 11.5656 14.8407 13.8893C10.9209 19.0421 9.22656 26.1398 9.22656 37.2284C9.22656 47.5339 10.8703 54.0001 14.7901 59.1781C17.1419 62.3102 20.9605 65.0129 24.7033 66.2253L26.17 66.68V71.0245C26.17 76.0004 26.3976 76.8592 27.8643 77.5412C29.6093 78.3747 30.4944 77.7685 35.1728 72.54L38.3592 68.9785L43.6951 69.0038C49.385 69.0543 53.6841 68.6754 57.7809 67.8166C63.9766 66.5284 66.9101 65.3413 70.1724 62.8659C76.5198 58.0668 79.0993 50.3881 79.1246 36.117C79.1246 30.8632 78.8464 27.8069 77.9613 24.1191C76.0646 15.9858 72.853 11.5403 66.7078 8.48399C63.0662 6.66537 58.7419 5.45295 53.4312 4.79623C50.4725 4.41734 40.8122 4.08898 39.1937 4.31631ZM49.815 9.72166C58.4384 10.4289 64.7606 12.6012 68.1493 16.0363C72.9541 20.886 74.8255 30.8379 73.4346 44.0735C72.7012 51.0954 70.3494 55.945 66.2526 58.8498C64.2548 60.2895 62.3329 61.0725 58.5648 62.0071C53.9876 63.1437 50.7506 63.5479 44.8331 63.6994L39.3454 63.851L38.5362 64.8866C37.2212 66.5284 33.5796 70.7719 31.3795 73.1967C29.9127 74.8385 29.2299 75.3942 28.8506 75.3437C28.3195 75.2679 28.3195 75.1669 28.2437 68.4986C28.1931 63.1437 28.1172 61.7545 27.8643 61.7545C27.662 61.7545 26.8022 61.4514 25.9171 61.0978C19.4179 58.4709 15.8016 52.9898 14.7648 44.1997C14.3855 40.9161 14.6131 30.5601 15.1441 27.7311C16.181 22.0984 17.9259 18.4106 20.8847 15.6322C25.9424 10.9088 36.8671 8.68606 49.815 9.72166Z" fill="#ECECEC"/>
<path id="Vector_5" d="M42.9355 17.9558C42.6068 18.8146 43.2137 19.1935 45.2874 19.3703C49.6876 19.7744 53.0004 21.3405 56.1615 24.4725C59.1456 27.4278 60.587 30.7114 60.9411 35.2327C61.194 38.1627 61.2193 38.3143 62.0285 38.2133L62.7113 38.1375L62.686 35.8642C62.5343 26.8721 56.2374 19.4713 47.4116 17.9053C44.731 17.4254 43.1378 17.4506 42.9355 17.9558Z" fill="#ECECEC"/>
<path id="Vector_6" d="M29.5327 20.1788C26.9533 21.6438 25.1325 23.715 24.8037 25.5336C24.5508 26.746 25.3348 28.9688 27.3579 32.9344C29.1787 36.4959 32.011 40.8656 34.11 43.3157C35.9813 45.5385 39.193 48.3169 42.1012 50.2618C46.5267 53.1918 53.3041 56.4502 55.0237 56.4502C57.5273 56.4502 61.5735 52.5098 61.5735 50.0345C61.5735 49.1504 61.4218 48.8979 60.2585 47.7865C59.5251 47.1045 57.8055 45.8163 56.4399 44.907C54.4168 43.543 53.7087 43.2147 52.6972 43.1136L51.4327 42.9873L49.789 44.7049L48.1452 46.3972L46.8808 46.2962C42.784 45.8921 37.3216 40.8909 35.248 35.6623C34.464 33.6921 34.5652 33.3133 36.3859 31.5957C38.1814 29.9033 38.4849 29.1708 37.9791 27.7311C37.3216 25.8367 33.2501 20.3808 32.1122 19.8756C31.1765 19.4463 30.7213 19.4968 29.5327 20.1788Z" fill="#ECECEC"/>
<path id="Vector_7" d="M44.6068 22.755C44.0251 23.4623 44.6574 23.9675 46.554 24.2958C49.791 24.8515 51.5865 25.7356 53.4325 27.7563C54.874 29.3223 55.7844 31.3177 56.0879 33.692C56.3913 36.1421 56.4166 36.2179 56.9224 36.42C58.6926 37.0767 58.0351 31.3177 56.012 28.1604C54.3176 25.5082 51.6876 23.7149 48.2231 22.8308C45.9218 22.2499 45.062 22.2246 44.6068 22.755Z" fill="#ECECEC"/>
<path id="Vector_8" d="M45.9971 27.7816C45.6936 28.5141 46.2499 29.0445 47.5397 29.2213C49.6386 29.5244 50.8778 30.8126 51.333 33.1364C51.5859 34.4499 51.687 34.6014 52.2939 34.6772C52.825 34.753 53.002 34.6267 53.1032 34.172C53.2802 33.4901 52.8756 31.4441 52.3698 30.459C51.5353 28.8677 49.6133 27.6806 47.5144 27.4785C46.3764 27.3522 46.1235 27.4027 45.9971 27.7816Z" fill="#ECECEC"/>
</g>
</g>
</g>
</svg>
